<?xml version="1.0"?>

<svg version="1.0" xmlns="http://www.w3.org/2000/svg" width="676.000000pt" height="369.000000pt" viewBox="0 0 676.000000 369.000000" preserveAspectRatio="xMidYMid meet">

<g transform="translate(0.000000,369.000000) scale(0.100000,-0.100000)" fill="#000000" stroke="none">
<path d="M125 2978 c4 -12 22 -61 40 -108 18 -47 35 -97 39 -112 4 -17 92&#xA;-110 248 -263 134 -131 234 -233 223 -227 -11 6 -29 20 -39 31 -11 12 -24 21&#xA;-31 21 -7 0 -24 11 -38 24 -48 45 -360 266 -366 260 -2 -2 19 -51 48 -109 28&#xA;-58 51 -109 51 -114 0 -5 39 -39 88 -75 166 -123 203 -151 248 -188 25 -21 44&#xA;-38 42 -38 -2 0 -75 36 -162 81 -87 44 -160 78 -163 75 -8 -8 68 -154 91 -175&#xA;12 -10 48 -30 81 -44 33 -14 90 -38 128 -53 37 -16 67 -31 67 -35 0 -3 -26&#xA;-16 -57 -27 -32 -12 -74 -32 -93 -44 l-35 -23 180 -5 180 -5 60 -35 c64 -38&#xA;78 -58 100 -143 18 -71 55 -167 63 -167 4 0 27 37 52 82 26 47 46 75 48 65 2&#xA;-9 -15 -67 -37 -129 -22 -62 -45 -132 -51 -155 -6 -24 -12 -43 -15 -43 -5 0&#xA;-53 130 -60 165 -4 17 -25 82 -47 146 l-40 117 -60 31 c-50 25 -73 31 -126 31&#xA;-74 0 -73 12 -17 -125 34 -86 52 -133 160 -415 26 -69 65 -168 86 -220 20 -52&#xA;45 -117 54 -145 9 -27 24 -66 35 -85 l18 -35 7 30 c3 17 26 78 51 136 24 59&#xA;44 111 44 117 0 5 12 36 26 68 14 33 39 93 54 134 15 41 41 109 58 150 17 41&#xA;50 125 73 185 23 61 59 151 79 200 21 50 43 108 50 129 7 22 28 73 46 113 19&#xA;41 34 80 34 87 0 7 18 54 40 105 22 50 40 97 40 102 0 6 14 43 32 82 17 40 43&#xA;104 57 144 23 64 38 85 136 190 61 65 128 136 150 158 23 22 47 49 55 60 15&#xA;19 14 19 -10 4 -14 -9 -83 -46 -155 -84 -71 -37 -146 -77 -165 -89 -19 -11&#xA;-107 -60 -195 -107 -87 -47 -160 -90 -162 -95 -2 -5 15 -19 37 -32 36 -21 39&#xA;-25 29 -45 -11 -20 -68 -177 -126 -347 -57 -168 -66 -190 -74 -190 -5 0 -13&#xA;19 -19 43 -6 23 -20 72 -31 109 -19 68 -19 68 0 107 20 38 71 68 92 55 5 -3 9&#xA;1 9 9 0 49 -117 58 -242 20 -49 -15 -88 -30 -88 -34 0 -4 14 -10 31 -14 34 -8&#xA;35 -1 -5 -113 l-27 -74 27 -45 c21 -37 23 -43 7 -35 -10 6 -27 20 -38 32 -11&#xA;12 -32 28 -47 36 -23 12 -27 22 -33 71 -11 100 -15 109 -80 195 -35 45 -79&#xA;104 -97 131 -18 26 -36 47 -39 47 -3 0 -3 -18 1 -40 4 -22 5 -40 2 -40 -5 0&#xA;-85 76 -202 190 -25 25 -86 81 -135 125 -90 81 -127 115 -200 183 -22 21 -53&#xA;46 -68 56 l-29 18 7 -24z"></path>
<path d="M2213 2313 l-53 -4 0 -69 0 -69 60 22 60 22 0 53 c0 28 -3 51 -7 50&#xA;-5 -1 -32 -3 -60 -5z"></path>
<path d="M2438 2313 l-48 -4 0 -48 0 -48 55 -20 55 -21 0 74 c0 41 -3 73 -7&#xA;72 -5 -1 -29 -3 -55 -5z"></path>
<path d="M2891 2165 l-44 -45 -76 0 -75 0 38 -39 38 -39 -1 -158 c-2 -156 -2&#xA;-159 -27 -185 l-26 -27 26 -17 26 -17 0 -182 0 -182 -28 -27 -28 -27 -33 28&#xA;c-28 23 -40 49 -81 177 -50 154 -52 171 -19 214 23 29 17 41 -20 41 -39 0 -51&#xA;20 -81 140 -6 25 -29 101 -50 170 -21 69 -42 140 -47 159 l-8 34 -72 -70 c-64&#xA;-63 -73 -77 -91 -139 -11 -38 -31 -107 -45 -154 -14 -47 -28 -97 -31 -112 -5&#xA;-24 -11 -28 -41 -28 -45 0 -51 -13 -24 -56 l21 -35 -21 -77 c-62 -216 -64&#xA;-223 -103 -262 -21 -21 -38 -40 -38 -44 0 -3 65 -6 145 -6 158 0 165 3 118 52&#xA;l-27 28 18 57 c33 110 36 114 69 111 23 -2 34 -11 46 -35 9 -18 18 -33 21 -33&#xA;3 0 16 16 29 35 17 25 31 35 50 35 25 0 29 -7 55 -86 l28 -86 -31 -32 c-17&#xA;-18 -31 -35 -31 -39 0 -4 186 -6 413 -5 l412 3 3 124 3 124 -42 -51 -43 -52&#xA;-113 0 -113 0 0 139 c0 137 0 140 25 159 31 25 31 33 0 62 l-25 23 -2 238 -3&#xA;239 -44 -45z m-533 -434 c18 -65 32 -124 32 -130 0 -7 -24 -11 -69 -11 l-69 0&#xA;29 108 c16 59 29 117 29 130 0 52 19 14 48 -97z"></path>
<path d="M5238 2128 l-78 -83 0 -157 0 -156 -36 -29 -37 -29 37 -22 36 -21 0&#xA;-175 0 -175 -35 -28 c-61 -49 -51 -53 115 -53 83 0 150 3 150 7 0 4 -16 21&#xA;-35 39 l-35 32 0 172 c0 171 7 210 35 210 22 0 18 19 -7 40 -22 18 -23 24 -28&#xA;265 l-5 247 -77 -84z"></path>
<path d="M4080 2160 c-9 -23 -21 -31 -49 -36 -76 -14 -157 -69 -188 -128 -10&#xA;-20 -17 -71 -21 -153 -5 -117 -6 -125 -28 -140 -30 -20 -30 -37 0 -51 23 -10&#xA;24 -15 28 -151 4 -134 6 -142 34 -188 33 -53 102 -98 167 -109 26 -5 41 -14&#xA;50 -32 17 -36 29 -36 52 -2 11 17 32 32 50 36 16 3 42 12 56 20 25 12 28 10&#xA;75 -37 26 -27 52 -49 56 -49 4 0 8 135 8 300 0 196 -4 300 -10 300 -10 0 -53&#xA;-29 -185 -125 -27 -20 -59 -42 -70 -50 -18 -13 -14 -14 43 -15 l62 0 0 -80 c0&#xA;-74 -2 -83 -25 -104 -37 -34 -79 -40 -130 -17 -24 11 -48 29 -54 40 -7 13 -11&#xA;65 -9 138 l3 118 29 14 29 14 -31 26 -32 26 0 102 c0 92 2 104 23 129 33 38&#xA;119 46 159 15 37 -30 43 -68 19 -130 -10 -28 -17 -51 -14 -51 9 0 193 150 193&#xA;157 0 3 -11 30 -25 59 -19 41 -35 58 -72 79 -27 14 -61 29 -78 32 -41 7 -72&#xA;28 -80 53 -9 28 -21 25 -35 -10z"></path>
<path d="M5694 2162 c-12 -21 -28 -33 -48 -37 -17 -3 -56 -17 -86 -31 -45 -21&#xA;-61 -35 -83 -73 -50 -90 -48 -205 5 -285 31 -47 52 -60 240 -153 80 -39 108&#xA;-72 108 -125 0 -59 -23 -94 -74 -113 -54 -21 -104 -9 -137 33 -21 27 -22 62&#xA;-3 137 l7 30 -36 -30 c-20 -17 -61 -50 -91 -75 -66 -53 -69 -73 -26 -141 26&#xA;-40 41 -51 96 -73 35 -14 73 -26 83 -26 11 0 29 -15 41 -35 l22 -35 19 24 c10&#xA;13 19 29 19 35 0 6 12 11 28 11 15 1 52 11 82 24 98 43 137 125 128 276 -6&#xA;110 -32 139 -196 221 -148 74 -177 96 -186 144 -9 46 16 102 49 115 38 14 92&#xA;12 124 -5 43 -22 53 -61 32 -124 -10 -28 -16 -51 -13 -51 3 0 35 24 71 53 36&#xA;30 76 60 89 68 73 45 -39 183 -165 204 -24 4 -43 10 -43 13 0 4 -9 18 -19 31&#xA;l-18 24 -19 -31z"></path>
<path d="M3736 2149 l-69 -29 -224 0 -224 0 -35 26 -34 26 0 -136 c0 -75 4&#xA;-136 9 -136 5 0 25 18 45 40 34 38 39 40 96 40 l60 0 0 -123 c0 -119 -1 -124&#xA;-25 -147 -14 -13 -25 -28 -25 -33 0 -5 11 -18 25 -29 l25 -19 0 -245 c0 -134&#xA;4 -244 9 -244 5 0 24 19 44 43 19 23 64 73 100 111 61 63 74 89 44 85 -36 -4&#xA;-37 0 -37 125 l0 125 30 23 30 24 -30 29 -30 29 0 123 0 123 62 0 c59 0 62 -1&#xA;95 -40 19 -22 39 -40 44 -40 5 0 9 32 9 72 0 62 4 77 31 119 16 26 37 53 45&#xA;59 15 13 19 31 7 29 -5 0 -39 -14 -77 -30z"></path>
<path d="M6650 2152 c-63 -26 -72 -27 -304 -30 -223 -2 -240 -1 -260 16 -46&#xA;42 -46 42 -46 -110 l1 -143 42 48 c42 47 42 47 105 47 l62 0 0 -126 0 -125&#xA;-31 -26 -30 -26 31 -26 30 -26 3 -455 2 -455 31 55 c34 63 45 83 65 125 14 29&#xA;18 30 87 33 l72 3 0 -48 0 -48 110 110 c61 60 110 113 110 117 0 5 -70 8 -155&#xA;8 l-155 0 2 288 c3 287 3 287 26 297 28 12 28 16 -3 45 -24 23 -25 28 -25 152&#xA;l0 128 52 0 c49 0 55 -3 100 -47 l48 -47 0 80 c0 74 2 84 28 112 53 61 84 102&#xA;75 101 -4 0 -37 -12 -73 -27z"></path>
<path d="M4980 2145 l-23 -25 -256 0 -256 0 43 -41 42 -41 0 -151 0 -151 -31&#xA;-32 -31 -32 31 -21 31 -22 0 -173 0 -172 -35 -34 c-19 -19 -35 -38 -35 -42 0&#xA;-5 125 -7 278 -6 l277 3 3 118 c1 64 0 117 -2 117 -3 0 -24 -20 -47 -45 l-42&#xA;-45 -118 0 -119 0 0 130 0 130 82 0 c75 0 84 -2 110 -27 l28 -27 0 124 0 124&#xA;-33 -32 c-31 -30 -37 -32 -110 -32 l-77 0 0 120 0 120 120 0 120 0 36 -40 c20&#xA;-22 40 -40 45 -40 5 0 9 61 9 135 0 74 -4 135 -8 135 -5 0 -19 -11 -32 -25z"></path>
<path d="M1806 2108 c4 -7 16 -23 27 -35 19 -22 19 -23 2 -75 -10 -29 -23 -78&#xA;-30 -108 -6 -30 -28 -107 -48 -170 -20 -63 -42 -137 -49 -165 l-12 -50 -28 85&#xA;c-15 47 -27 93 -28 103 0 10 -10 48 -22 85 l-21 67 -24 -50 c-12 -27 -23 -55&#xA;-23 -61 0 -7 -11 -36 -25 -67 l-25 -55 23 -68 c13 -38 32 -96 42 -129 10 -33&#xA;31 -95 47 -138 l30 -78 51 3 52 3 26 66 c15 36 31 86 37 110 5 24 27 92 47&#xA;151 36 104 39 107 78 123 l40 16 -26 27 -27 28 31 99 c16 55 37 125 46 155 13&#xA;41 29 66 62 98 l46 42 -153 0 c-120 0 -152 -3 -146 -12z"></path>
<path d="M480 1062 c0 -8 225 -222 234 -222 3 0 3 20 -1 45 l-6 44 134 3 134&#xA;3 -3 24 c-1 13 -11 43 -22 67 l-19 44 -225 0 c-124 0 -226 -3 -226 -8z"></path>
<path d="M1270 1000 c-16 -33 -30 -62 -30 -65 0 -3 1114 -5 2475 -5 l2475 0 0&#xA;65 0 65 -2445 0 -2445 0 -30 -60z"></path>
</g>
</svg>